<mxfile host="Electron" agent="Mozilla/5.0 (Windows NT 10.0; Win64; x64) AppleWebKit/537.36 (KHTML, like Gecko) draw.io/24.7.5 Chrome/126.0.6478.183 Electron/31.3.0 Safari/537.36" version="24.7.5">
  <diagram name="Page-1" id="LLHGErTxs-_YIVuR_SZG">
    <mxGraphModel dx="2074" dy="1196" grid="1" gridSize="10" guides="1" tooltips="1" connect="1" arrows="1" fold="1" page="1" pageScale="1" pageWidth="1169" pageHeight="1654" math="0" shadow="0">
      <root>
        <mxCell id="0" />
        <mxCell id="1" parent="0" />
        <mxCell id="yrKDTGqNEfHH7oXAqPNS-1" value="Public subnet a" style="points=[[0,0],[0.25,0],[0.5,0],[0.75,0],[1,0],[1,0.25],[1,0.5],[1,0.75],[1,1],[0.75,1],[0.5,1],[0.25,1],[0,1],[0,0.75],[0,0.5],[0,0.25]];outlineConnect=0;gradientColor=none;html=1;whiteSpace=wrap;fontSize=12;fontStyle=0;container=1;pointerEvents=0;collapsible=0;recursiveResize=0;shape=mxgraph.aws4.group;grIcon=mxgraph.aws4.group_security_group;grStroke=0;strokeColor=#7AA116;fillColor=#F2F6E8;verticalAlign=top;align=left;spacingLeft=30;fontColor=#248814;dashed=0;" parent="1" vertex="1">
          <mxGeometry x="360" y="400" width="440" height="320" as="geometry" />
        </mxCell>
        <mxCell id="yrKDTGqNEfHH7oXAqPNS-2" value="Public subnet b" style="points=[[0,0],[0.25,0],[0.5,0],[0.75,0],[1,0],[1,0.25],[1,0.5],[1,0.75],[1,1],[0.75,1],[0.5,1],[0.25,1],[0,1],[0,0.75],[0,0.5],[0,0.25]];outlineConnect=0;gradientColor=none;html=1;whiteSpace=wrap;fontSize=12;fontStyle=0;container=1;pointerEvents=0;collapsible=0;recursiveResize=0;shape=mxgraph.aws4.group;grIcon=mxgraph.aws4.group_security_group;grStroke=0;strokeColor=#7AA116;fillColor=#F2F6E8;verticalAlign=top;align=left;spacingLeft=30;fontColor=#248814;dashed=0;" parent="1" vertex="1">
          <mxGeometry x="360" y="760" width="440" height="320" as="geometry" />
        </mxCell>
        <mxCell id="yrKDTGqNEfHH7oXAqPNS-3" value="Private subnet a" style="points=[[0,0],[0.25,0],[0.5,0],[0.75,0],[1,0],[1,0.25],[1,0.5],[1,0.75],[1,1],[0.75,1],[0.5,1],[0.25,1],[0,1],[0,0.75],[0,0.5],[0,0.25]];outlineConnect=0;gradientColor=none;html=1;whiteSpace=wrap;fontSize=12;fontStyle=0;container=1;pointerEvents=0;collapsible=0;recursiveResize=0;shape=mxgraph.aws4.group;grIcon=mxgraph.aws4.group_security_group;grStroke=0;strokeColor=#00A4A6;fillColor=#E6F6F7;verticalAlign=top;align=left;spacingLeft=30;fontColor=#147EBA;dashed=0;" parent="1" vertex="1">
          <mxGeometry x="840" y="400" width="320" height="320" as="geometry" />
        </mxCell>
        <mxCell id="yrKDTGqNEfHH7oXAqPNS-4" value="Private subnet b" style="points=[[0,0],[0.25,0],[0.5,0],[0.75,0],[1,0],[1,0.25],[1,0.5],[1,0.75],[1,1],[0.75,1],[0.5,1],[0.25,1],[0,1],[0,0.75],[0,0.5],[0,0.25]];outlineConnect=0;gradientColor=none;html=1;whiteSpace=wrap;fontSize=12;fontStyle=0;container=1;pointerEvents=0;collapsible=0;recursiveResize=0;shape=mxgraph.aws4.group;grIcon=mxgraph.aws4.group_security_group;grStroke=0;strokeColor=#00A4A6;fillColor=#E6F6F7;verticalAlign=top;align=left;spacingLeft=30;fontColor=#147EBA;dashed=0;" parent="1" vertex="1">
          <mxGeometry x="840" y="760" width="320" height="320" as="geometry" />
        </mxCell>
        <mxCell id="yrKDTGqNEfHH7oXAqPNS-5" value="Data subnet a" style="points=[[0,0],[0.25,0],[0.5,0],[0.75,0],[1,0],[1,0.25],[1,0.5],[1,0.75],[1,1],[0.75,1],[0.5,1],[0.25,1],[0,1],[0,0.75],[0,0.5],[0,0.25]];outlineConnect=0;html=1;whiteSpace=wrap;fontSize=12;fontStyle=0;container=1;pointerEvents=0;collapsible=0;recursiveResize=0;shape=mxgraph.aws4.group;grIcon=mxgraph.aws4.group_security_group;grStroke=0;strokeColor=#666666;fillColor=#f5f5f5;verticalAlign=top;align=left;spacingLeft=30;fontColor=#333333;dashed=0;" parent="1" vertex="1">
          <mxGeometry x="1200" y="400" width="320" height="320" as="geometry" />
        </mxCell>
        <mxCell id="yrKDTGqNEfHH7oXAqPNS-6" value="Data&amp;nbsp;subnet b" style="points=[[0,0],[0.25,0],[0.5,0],[0.75,0],[1,0],[1,0.25],[1,0.5],[1,0.75],[1,1],[0.75,1],[0.5,1],[0.25,1],[0,1],[0,0.75],[0,0.5],[0,0.25]];outlineConnect=0;html=1;whiteSpace=wrap;fontSize=12;fontStyle=0;container=1;pointerEvents=0;collapsible=0;recursiveResize=0;shape=mxgraph.aws4.group;grIcon=mxgraph.aws4.group_security_group;grStroke=0;strokeColor=#666666;fillColor=#f5f5f5;verticalAlign=top;align=left;spacingLeft=30;fontColor=#333333;dashed=0;" parent="1" vertex="1">
          <mxGeometry x="1200" y="760" width="320" height="320" as="geometry" />
        </mxCell>
        <mxCell id="yrKDTGqNEfHH7oXAqPNS-141" style="edgeStyle=orthogonalEdgeStyle;rounded=0;orthogonalLoop=1;jettySize=auto;html=1;" parent="1" source="yrKDTGqNEfHH7oXAqPNS-7" target="yrKDTGqNEfHH7oXAqPNS-140" edge="1">
          <mxGeometry relative="1" as="geometry" />
        </mxCell>
        <mxCell id="yrKDTGqNEfHH7oXAqPNS-7" value="IGW" style="outlineConnect=0;dashed=0;verticalLabelPosition=bottom;verticalAlign=top;align=center;html=1;shape=mxgraph.aws3.internet_gateway;fillColor=#F58534;gradientColor=none;" parent="1" vertex="1">
          <mxGeometry x="220" y="705.5" width="69" height="72" as="geometry" />
        </mxCell>
        <mxCell id="yrKDTGqNEfHH7oXAqPNS-8" value="NAT Gateway" style="outlineConnect=0;dashed=0;verticalLabelPosition=bottom;verticalAlign=top;align=center;html=1;shape=mxgraph.aws3.vpc_nat_gateway;fillColor=#F58534;gradientColor=none;" parent="1" vertex="1">
          <mxGeometry x="418" y="531" width="69" height="72" as="geometry" />
        </mxCell>
        <mxCell id="yrKDTGqNEfHH7oXAqPNS-10" value="NAT Instance" style="sketch=0;points=[[0,0,0],[0.25,0,0],[0.5,0,0],[0.75,0,0],[1,0,0],[0,1,0],[0.25,1,0],[0.5,1,0],[0.75,1,0],[1,1,0],[0,0.25,0],[0,0.5,0],[0,0.75,0],[1,0.25,0],[1,0.5,0],[1,0.75,0]];outlineConnect=0;fontColor=#232F3E;fillColor=#ED7100;strokeColor=#ffffff;dashed=0;verticalLabelPosition=bottom;verticalAlign=top;align=center;html=1;fontSize=12;fontStyle=0;aspect=fixed;shape=mxgraph.aws4.resourceIcon;resIcon=mxgraph.aws4.ec2;" parent="1" vertex="1">
          <mxGeometry x="548" y="525" width="78" height="78" as="geometry" />
        </mxCell>
        <mxCell id="yrKDTGqNEfHH7oXAqPNS-9" value="" style="image;aspect=fixed;html=1;points=[];align=center;fontSize=12;image=img/lib/azure2/networking/NAT.svg;" parent="1" vertex="1">
          <mxGeometry x="598" y="515" width="50" height="50" as="geometry" />
        </mxCell>
        <mxCell id="yrKDTGqNEfHH7oXAqPNS-11" value="OR" style="text;html=1;align=center;verticalAlign=middle;resizable=0;points=[];autosize=1;strokeColor=none;fillColor=none;fontStyle=1;fontColor=#000000;" parent="1" vertex="1">
          <mxGeometry x="498" y="552" width="40" height="30" as="geometry" />
        </mxCell>
        <mxCell id="yrKDTGqNEfHH7oXAqPNS-23" style="edgeStyle=orthogonalEdgeStyle;rounded=0;orthogonalLoop=1;jettySize=auto;html=1;" parent="1" source="yrKDTGqNEfHH7oXAqPNS-12" target="yrKDTGqNEfHH7oXAqPNS-7" edge="1">
          <mxGeometry relative="1" as="geometry" />
        </mxCell>
        <mxCell id="yrKDTGqNEfHH7oXAqPNS-12" value="" style="rounded=0;whiteSpace=wrap;html=1;fillColor=none;dashed=1;" parent="1" vertex="1">
          <mxGeometry x="400" y="510" width="260" height="120" as="geometry" />
        </mxCell>
        <mxCell id="yrKDTGqNEfHH7oXAqPNS-21" style="edgeStyle=orthogonalEdgeStyle;rounded=0;orthogonalLoop=1;jettySize=auto;html=1;" parent="1" source="yrKDTGqNEfHH7oXAqPNS-14" target="yrKDTGqNEfHH7oXAqPNS-7" edge="1">
          <mxGeometry relative="1" as="geometry" />
        </mxCell>
        <mxCell id="yrKDTGqNEfHH7oXAqPNS-125" style="edgeStyle=orthogonalEdgeStyle;rounded=0;orthogonalLoop=1;jettySize=auto;html=1;exitX=0.5;exitY=1;exitDx=0;exitDy=0;endArrow=none;endFill=0;dashed=1;" parent="1" source="yrKDTGqNEfHH7oXAqPNS-14" target="yrKDTGqNEfHH7oXAqPNS-98" edge="1">
          <mxGeometry relative="1" as="geometry" />
        </mxCell>
        <mxCell id="yrKDTGqNEfHH7oXAqPNS-14" value="" style="rounded=0;whiteSpace=wrap;html=1;fillColor=none;dashed=1;" parent="1" vertex="1">
          <mxGeometry x="674.75" y="640" width="105.5" height="204" as="geometry" />
        </mxCell>
        <mxCell id="yrKDTGqNEfHH7oXAqPNS-13" value="Route Table&lt;div&gt;(Public)&lt;/div&gt;" style="outlineConnect=0;dashed=0;verticalLabelPosition=bottom;verticalAlign=top;align=center;html=1;shape=mxgraph.aws3.route_table;fillColor=#F58536;gradientColor=none;" parent="1" vertex="1">
          <mxGeometry x="690" y="702" width="75" height="69" as="geometry" />
        </mxCell>
        <mxCell id="yrKDTGqNEfHH7oXAqPNS-22" style="edgeStyle=orthogonalEdgeStyle;rounded=0;orthogonalLoop=1;jettySize=auto;html=1;exitX=0.5;exitY=0;exitDx=0;exitDy=0;" parent="1" source="yrKDTGqNEfHH7oXAqPNS-17" target="yrKDTGqNEfHH7oXAqPNS-12" edge="1">
          <mxGeometry relative="1" as="geometry">
            <mxPoint x="1000.0999999999999" y="596.5" as="sourcePoint" />
            <Array as="points">
              <mxPoint x="1000" y="570" />
            </Array>
          </mxGeometry>
        </mxCell>
        <mxCell id="yrKDTGqNEfHH7oXAqPNS-126" style="edgeStyle=orthogonalEdgeStyle;rounded=0;orthogonalLoop=1;jettySize=auto;html=1;exitX=0.5;exitY=1;exitDx=0;exitDy=0;endArrow=none;endFill=0;dashed=1;" parent="1" source="yrKDTGqNEfHH7oXAqPNS-17" target="yrKDTGqNEfHH7oXAqPNS-112" edge="1">
          <mxGeometry relative="1" as="geometry" />
        </mxCell>
        <mxCell id="yrKDTGqNEfHH7oXAqPNS-17" value="" style="rounded=0;whiteSpace=wrap;html=1;fillColor=none;dashed=1;" parent="1" vertex="1">
          <mxGeometry x="947.25" y="640" width="105.5" height="204" as="geometry" />
        </mxCell>
        <mxCell id="yrKDTGqNEfHH7oXAqPNS-18" value="Route Table&lt;div&gt;(Private)&lt;/div&gt;" style="outlineConnect=0;dashed=0;verticalLabelPosition=bottom;verticalAlign=top;align=center;html=1;shape=mxgraph.aws3.route_table;fillColor=#F58536;gradientColor=none;" parent="1" vertex="1">
          <mxGeometry x="962.5" y="696.5" width="75" height="69" as="geometry" />
        </mxCell>
        <mxCell id="yrKDTGqNEfHH7oXAqPNS-127" style="edgeStyle=orthogonalEdgeStyle;rounded=0;orthogonalLoop=1;jettySize=auto;html=1;exitX=0.5;exitY=1;exitDx=0;exitDy=0;endArrow=none;endFill=0;dashed=1;" parent="1" source="yrKDTGqNEfHH7oXAqPNS-19" target="yrKDTGqNEfHH7oXAqPNS-119" edge="1">
          <mxGeometry relative="1" as="geometry" />
        </mxCell>
        <mxCell id="yrKDTGqNEfHH7oXAqPNS-19" value="" style="rounded=0;whiteSpace=wrap;html=1;fillColor=none;dashed=1;" parent="1" vertex="1">
          <mxGeometry x="1307.25" y="638.5" width="105.5" height="204" as="geometry" />
        </mxCell>
        <mxCell id="yrKDTGqNEfHH7oXAqPNS-20" value="Route Table&lt;div&gt;(Private)&lt;/div&gt;" style="outlineConnect=0;dashed=0;verticalLabelPosition=bottom;verticalAlign=top;align=center;html=1;shape=mxgraph.aws3.route_table;fillColor=#F58536;gradientColor=none;" parent="1" vertex="1">
          <mxGeometry x="1322.5" y="695" width="75" height="69" as="geometry" />
        </mxCell>
        <mxCell id="yrKDTGqNEfHH7oXAqPNS-26" value="AWS Cloud" style="points=[[0,0],[0.25,0],[0.5,0],[0.75,0],[1,0],[1,0.25],[1,0.5],[1,0.75],[1,1],[0.75,1],[0.5,1],[0.25,1],[0,1],[0,0.75],[0,0.5],[0,0.25]];outlineConnect=0;gradientColor=none;html=1;whiteSpace=wrap;fontSize=12;fontStyle=0;container=1;pointerEvents=0;collapsible=0;recursiveResize=0;shape=mxgraph.aws4.group;grIcon=mxgraph.aws4.group_aws_cloud_alt;strokeColor=#232F3E;fillColor=none;verticalAlign=top;align=left;spacingLeft=30;fontColor=#232F3E;dashed=0;" parent="1" vertex="1">
          <mxGeometry x="160" y="280" width="1480" height="920" as="geometry" />
        </mxCell>
        <mxCell id="yrKDTGqNEfHH7oXAqPNS-27" value="Availability Zone a" style="fillColor=none;strokeColor=#147EBA;dashed=1;verticalAlign=top;fontStyle=0;fontColor=#147EBA;whiteSpace=wrap;html=1;" parent="1" vertex="1">
          <mxGeometry x="380" y="480" width="1120" height="180" as="geometry" />
        </mxCell>
        <mxCell id="yrKDTGqNEfHH7oXAqPNS-30" value="Availability Zone b" style="fillColor=none;strokeColor=#147EBA;dashed=1;verticalAlign=top;fontStyle=0;fontColor=#147EBA;whiteSpace=wrap;html=1;" parent="1" vertex="1">
          <mxGeometry x="380" y="850" width="1120" height="180" as="geometry" />
        </mxCell>
        <mxCell id="yrKDTGqNEfHH7oXAqPNS-31" value="VPC (10.0.0.0/16)" style="points=[[0,0],[0.25,0],[0.5,0],[0.75,0],[1,0],[1,0.25],[1,0.5],[1,0.75],[1,1],[0.75,1],[0.5,1],[0.25,1],[0,1],[0,0.75],[0,0.5],[0,0.25]];outlineConnect=0;gradientColor=none;html=1;whiteSpace=wrap;fontSize=12;fontStyle=0;container=1;pointerEvents=0;collapsible=0;recursiveResize=0;shape=mxgraph.aws4.group;grIcon=mxgraph.aws4.group_vpc2;strokeColor=#8C4FFF;fillColor=none;verticalAlign=top;align=left;spacingLeft=30;fontColor=#000000;dashed=0;" parent="1" vertex="1">
          <mxGeometry x="320" y="360" width="1240" height="760" as="geometry" />
        </mxCell>
        <mxCell id="yrKDTGqNEfHH7oXAqPNS-32" value="Region" style="points=[[0,0],[0.25,0],[0.5,0],[0.75,0],[1,0],[1,0.25],[1,0.5],[1,0.75],[1,1],[0.75,1],[0.5,1],[0.25,1],[0,1],[0,0.75],[0,0.5],[0,0.25]];outlineConnect=0;gradientColor=none;html=1;whiteSpace=wrap;fontSize=12;fontStyle=0;container=1;pointerEvents=0;collapsible=0;recursiveResize=0;shape=mxgraph.aws4.group;grIcon=mxgraph.aws4.group_region;strokeColor=#00A4A6;fillColor=none;verticalAlign=top;align=left;spacingLeft=30;fontColor=#147EBA;dashed=1;" parent="1" vertex="1">
          <mxGeometry x="200" y="320" width="1400" height="840" as="geometry" />
        </mxCell>
        <mxCell id="yrKDTGqNEfHH7oXAqPNS-93" value="" style="childLayout=tableLayout;recursiveResize=0;shadow=0;fillColor=none;" parent="1" vertex="1">
          <mxGeometry x="612" y="1230" width="230" height="140" as="geometry" />
        </mxCell>
        <mxCell id="yrKDTGqNEfHH7oXAqPNS-98" style="shape=tableRow;horizontal=0;startSize=0;swimlaneHead=0;swimlaneBody=0;top=0;left=0;bottom=0;right=0;dropTarget=0;collapsible=0;recursiveResize=0;expand=0;fontStyle=0;fillColor=#f5f5f5;strokeColor=#666666;fontColor=#333333;" parent="yrKDTGqNEfHH7oXAqPNS-93" vertex="1">
          <mxGeometry width="230" height="46" as="geometry" />
        </mxCell>
        <mxCell id="yrKDTGqNEfHH7oXAqPNS-99" value="Destination" style="connectable=0;recursiveResize=0;strokeColor=#666666;fillColor=#f5f5f5;align=center;whiteSpace=wrap;html=1;fontColor=#333333;fontStyle=1" parent="yrKDTGqNEfHH7oXAqPNS-98" vertex="1">
          <mxGeometry width="110" height="46" as="geometry">
            <mxRectangle width="110" height="46" as="alternateBounds" />
          </mxGeometry>
        </mxCell>
        <mxCell id="yrKDTGqNEfHH7oXAqPNS-100" value="Source" style="connectable=0;recursiveResize=0;strokeColor=#666666;fillColor=#f5f5f5;align=center;whiteSpace=wrap;html=1;fontColor=#333333;fontStyle=1" parent="yrKDTGqNEfHH7oXAqPNS-98" vertex="1">
          <mxGeometry x="110" width="120" height="46" as="geometry">
            <mxRectangle width="120" height="46" as="alternateBounds" />
          </mxGeometry>
        </mxCell>
        <mxCell id="yrKDTGqNEfHH7oXAqPNS-102" style="shape=tableRow;horizontal=0;startSize=0;swimlaneHead=0;swimlaneBody=0;top=0;left=0;bottom=0;right=0;dropTarget=0;collapsible=0;recursiveResize=0;expand=0;fontStyle=0;fillColor=none;strokeColor=inherit;" parent="yrKDTGqNEfHH7oXAqPNS-93" vertex="1">
          <mxGeometry y="46" width="230" height="47" as="geometry" />
        </mxCell>
        <mxCell id="yrKDTGqNEfHH7oXAqPNS-103" value="0.0.0.0/0" style="connectable=0;recursiveResize=0;strokeColor=inherit;fillColor=none;align=center;whiteSpace=wrap;html=1;" parent="yrKDTGqNEfHH7oXAqPNS-102" vertex="1">
          <mxGeometry width="110" height="47" as="geometry">
            <mxRectangle width="110" height="47" as="alternateBounds" />
          </mxGeometry>
        </mxCell>
        <mxCell id="yrKDTGqNEfHH7oXAqPNS-104" value="IGW" style="connectable=0;recursiveResize=0;strokeColor=inherit;fillColor=none;align=center;whiteSpace=wrap;html=1;" parent="yrKDTGqNEfHH7oXAqPNS-102" vertex="1">
          <mxGeometry x="110" width="120" height="47" as="geometry">
            <mxRectangle width="120" height="47" as="alternateBounds" />
          </mxGeometry>
        </mxCell>
        <mxCell id="yrKDTGqNEfHH7oXAqPNS-133" style="shape=tableRow;horizontal=0;startSize=0;swimlaneHead=0;swimlaneBody=0;top=0;left=0;bottom=0;right=0;dropTarget=0;collapsible=0;recursiveResize=0;expand=0;fontStyle=0;fillColor=none;strokeColor=inherit;" parent="yrKDTGqNEfHH7oXAqPNS-93" vertex="1">
          <mxGeometry y="93" width="230" height="47" as="geometry" />
        </mxCell>
        <mxCell id="yrKDTGqNEfHH7oXAqPNS-134" value="10.0.0.0/16" style="connectable=0;recursiveResize=0;strokeColor=inherit;fillColor=none;align=center;whiteSpace=wrap;html=1;" parent="yrKDTGqNEfHH7oXAqPNS-133" vertex="1">
          <mxGeometry width="110" height="47" as="geometry">
            <mxRectangle width="110" height="47" as="alternateBounds" />
          </mxGeometry>
        </mxCell>
        <mxCell id="yrKDTGqNEfHH7oXAqPNS-135" value="local" style="connectable=0;recursiveResize=0;strokeColor=inherit;fillColor=none;align=center;whiteSpace=wrap;html=1;" parent="yrKDTGqNEfHH7oXAqPNS-133" vertex="1">
          <mxGeometry x="110" width="120" height="47" as="geometry">
            <mxRectangle width="120" height="47" as="alternateBounds" />
          </mxGeometry>
        </mxCell>
        <mxCell id="yrKDTGqNEfHH7oXAqPNS-111" value="" style="childLayout=tableLayout;recursiveResize=0;shadow=0;fillColor=none;" parent="1" vertex="1">
          <mxGeometry x="885" y="1230" width="230" height="140" as="geometry" />
        </mxCell>
        <mxCell id="yrKDTGqNEfHH7oXAqPNS-112" style="shape=tableRow;horizontal=0;startSize=0;swimlaneHead=0;swimlaneBody=0;top=0;left=0;bottom=0;right=0;dropTarget=0;collapsible=0;recursiveResize=0;expand=0;fontStyle=0;fillColor=#f5f5f5;strokeColor=#666666;fontColor=#333333;" parent="yrKDTGqNEfHH7oXAqPNS-111" vertex="1">
          <mxGeometry width="230" height="46" as="geometry" />
        </mxCell>
        <mxCell id="yrKDTGqNEfHH7oXAqPNS-113" value="Destination" style="connectable=0;recursiveResize=0;strokeColor=#666666;fillColor=#f5f5f5;align=center;whiteSpace=wrap;html=1;fontColor=#333333;fontStyle=1" parent="yrKDTGqNEfHH7oXAqPNS-112" vertex="1">
          <mxGeometry width="110" height="46" as="geometry">
            <mxRectangle width="110" height="46" as="alternateBounds" />
          </mxGeometry>
        </mxCell>
        <mxCell id="yrKDTGqNEfHH7oXAqPNS-114" value="Source" style="connectable=0;recursiveResize=0;strokeColor=#666666;fillColor=#f5f5f5;align=center;whiteSpace=wrap;html=1;fontColor=#333333;fontStyle=1" parent="yrKDTGqNEfHH7oXAqPNS-112" vertex="1">
          <mxGeometry x="110" width="120" height="46" as="geometry">
            <mxRectangle width="120" height="46" as="alternateBounds" />
          </mxGeometry>
        </mxCell>
        <mxCell id="yrKDTGqNEfHH7oXAqPNS-115" style="shape=tableRow;horizontal=0;startSize=0;swimlaneHead=0;swimlaneBody=0;top=0;left=0;bottom=0;right=0;dropTarget=0;collapsible=0;recursiveResize=0;expand=0;fontStyle=0;fillColor=none;strokeColor=inherit;" parent="yrKDTGqNEfHH7oXAqPNS-111" vertex="1">
          <mxGeometry y="46" width="230" height="47" as="geometry" />
        </mxCell>
        <mxCell id="yrKDTGqNEfHH7oXAqPNS-116" value="0.0.0.0/0" style="connectable=0;recursiveResize=0;strokeColor=inherit;fillColor=none;align=center;whiteSpace=wrap;html=1;" parent="yrKDTGqNEfHH7oXAqPNS-115" vertex="1">
          <mxGeometry width="110" height="47" as="geometry">
            <mxRectangle width="110" height="47" as="alternateBounds" />
          </mxGeometry>
        </mxCell>
        <mxCell id="yrKDTGqNEfHH7oXAqPNS-117" value="NAT" style="connectable=0;recursiveResize=0;strokeColor=inherit;fillColor=none;align=center;whiteSpace=wrap;html=1;" parent="yrKDTGqNEfHH7oXAqPNS-115" vertex="1">
          <mxGeometry x="110" width="120" height="47" as="geometry">
            <mxRectangle width="120" height="47" as="alternateBounds" />
          </mxGeometry>
        </mxCell>
        <mxCell id="yrKDTGqNEfHH7oXAqPNS-136" style="shape=tableRow;horizontal=0;startSize=0;swimlaneHead=0;swimlaneBody=0;top=0;left=0;bottom=0;right=0;dropTarget=0;collapsible=0;recursiveResize=0;expand=0;fontStyle=0;fillColor=none;strokeColor=inherit;" parent="yrKDTGqNEfHH7oXAqPNS-111" vertex="1">
          <mxGeometry y="93" width="230" height="47" as="geometry" />
        </mxCell>
        <mxCell id="yrKDTGqNEfHH7oXAqPNS-137" value="10.0.0.0/16" style="connectable=0;recursiveResize=0;strokeColor=inherit;fillColor=none;align=center;whiteSpace=wrap;html=1;" parent="yrKDTGqNEfHH7oXAqPNS-136" vertex="1">
          <mxGeometry width="110" height="47" as="geometry">
            <mxRectangle width="110" height="47" as="alternateBounds" />
          </mxGeometry>
        </mxCell>
        <mxCell id="yrKDTGqNEfHH7oXAqPNS-138" value="local" style="connectable=0;recursiveResize=0;strokeColor=inherit;fillColor=none;align=center;whiteSpace=wrap;html=1;" parent="yrKDTGqNEfHH7oXAqPNS-136" vertex="1">
          <mxGeometry x="110" width="120" height="47" as="geometry">
            <mxRectangle width="120" height="47" as="alternateBounds" />
          </mxGeometry>
        </mxCell>
        <mxCell id="yrKDTGqNEfHH7oXAqPNS-118" value="" style="childLayout=tableLayout;recursiveResize=0;shadow=0;fillColor=none;" parent="1" vertex="1">
          <mxGeometry x="1245" y="1230" width="230" height="93" as="geometry" />
        </mxCell>
        <mxCell id="yrKDTGqNEfHH7oXAqPNS-119" style="shape=tableRow;horizontal=0;startSize=0;swimlaneHead=0;swimlaneBody=0;top=0;left=0;bottom=0;right=0;dropTarget=0;collapsible=0;recursiveResize=0;expand=0;fontStyle=0;fillColor=#f5f5f5;strokeColor=#666666;fontColor=#333333;" parent="yrKDTGqNEfHH7oXAqPNS-118" vertex="1">
          <mxGeometry width="230" height="46" as="geometry" />
        </mxCell>
        <mxCell id="yrKDTGqNEfHH7oXAqPNS-120" value="Destination" style="connectable=0;recursiveResize=0;strokeColor=#666666;fillColor=#f5f5f5;align=center;whiteSpace=wrap;html=1;fontColor=#333333;fontStyle=1" parent="yrKDTGqNEfHH7oXAqPNS-119" vertex="1">
          <mxGeometry width="110" height="46" as="geometry">
            <mxRectangle width="110" height="46" as="alternateBounds" />
          </mxGeometry>
        </mxCell>
        <mxCell id="yrKDTGqNEfHH7oXAqPNS-121" value="Source" style="connectable=0;recursiveResize=0;strokeColor=#666666;fillColor=#f5f5f5;align=center;whiteSpace=wrap;html=1;fontColor=#333333;fontStyle=1" parent="yrKDTGqNEfHH7oXAqPNS-119" vertex="1">
          <mxGeometry x="110" width="120" height="46" as="geometry">
            <mxRectangle width="120" height="46" as="alternateBounds" />
          </mxGeometry>
        </mxCell>
        <mxCell id="yrKDTGqNEfHH7oXAqPNS-122" style="shape=tableRow;horizontal=0;startSize=0;swimlaneHead=0;swimlaneBody=0;top=0;left=0;bottom=0;right=0;dropTarget=0;collapsible=0;recursiveResize=0;expand=0;fontStyle=0;fillColor=none;strokeColor=inherit;" parent="yrKDTGqNEfHH7oXAqPNS-118" vertex="1">
          <mxGeometry y="46" width="230" height="47" as="geometry" />
        </mxCell>
        <mxCell id="yrKDTGqNEfHH7oXAqPNS-123" value="10.0.0.0/16" style="connectable=0;recursiveResize=0;strokeColor=inherit;fillColor=none;align=center;whiteSpace=wrap;html=1;" parent="yrKDTGqNEfHH7oXAqPNS-122" vertex="1">
          <mxGeometry width="110" height="47" as="geometry">
            <mxRectangle width="110" height="47" as="alternateBounds" />
          </mxGeometry>
        </mxCell>
        <mxCell id="yrKDTGqNEfHH7oXAqPNS-124" value="local" style="connectable=0;recursiveResize=0;strokeColor=inherit;fillColor=none;align=center;whiteSpace=wrap;html=1;" parent="yrKDTGqNEfHH7oXAqPNS-122" vertex="1">
          <mxGeometry x="110" width="120" height="47" as="geometry">
            <mxRectangle width="120" height="47" as="alternateBounds" />
          </mxGeometry>
        </mxCell>
        <mxCell id="yrKDTGqNEfHH7oXAqPNS-139" value="VPC Endpoints" style="sketch=0;outlineConnect=0;fontColor=#232F3E;gradientColor=none;fillColor=#8C4FFF;strokeColor=none;dashed=0;verticalLabelPosition=bottom;verticalAlign=top;align=center;html=1;fontSize=12;fontStyle=0;aspect=fixed;pointerEvents=1;shape=mxgraph.aws4.endpoints;" parent="1" vertex="1">
          <mxGeometry x="1520" y="1072" width="78" height="78" as="geometry" />
        </mxCell>
        <mxCell id="yrKDTGqNEfHH7oXAqPNS-140" value="Internet" style="sketch=0;outlineConnect=0;fontColor=#232F3E;gradientColor=none;fillColor=#232F3D;strokeColor=none;dashed=0;verticalLabelPosition=bottom;verticalAlign=top;align=center;html=1;fontSize=12;fontStyle=0;aspect=fixed;pointerEvents=1;shape=mxgraph.aws4.internet;" parent="1" vertex="1">
          <mxGeometry x="50" y="718" width="78" height="48" as="geometry" />
        </mxCell>
      </root>
    </mxGraphModel>
  </diagram>
</mxfile>
